<?xml version="1.0" standalone="no"?>
<!DOCTYPE svg PUBLIC "-//W3C//DTD SVG 20010904//EN"
 "http://www.w3.org/TR/2001/REC-SVG-20010904/DTD/svg10.dtd">
<svg version="1.0" xmlns="http://www.w3.org/2000/svg"
 width="900.000000pt" height="900.000000pt" viewBox="0 0 900.000000 900.000000"
 preserveAspectRatio="xMidYMid meet">
<g transform="translate(0.000000,900.000000) scale(0.100000,-0.100000)"
fill="#000000" stroke="none">
<path d="M4240 8869 c-204 -11 -382 -33 -585 -74 -881 -176 -1747 -674 -2360
-1355 -361 -401 -656 -889 -850 -1405 -37 -98 -48 -132 -105 -327 -56 -191
-106 -447 -142 -723 -18 -136 -18 -772 0 -915 32 -262 100 -614 128 -656 l13
-22 173 50 c95 28 179 56 186 62 10 10 7 37 -17 142 -74 330 -94 505 -95 864
-1 311 5 392 45 640 188 1153 867 2156 1866 2758 409 246 846 419 1261 496
188 35 527 74 555 63 14 -5 16 -66 19 -564 l3 -558 27 -73 c102 -281 389 -458
671 -412 96 15 125 25 230 74 82 39 184 66 253 66 55 0 193 -26 241 -46 98
-41 126 -58 173 -105 56 -56 129 -196 151 -289 17 -74 15 -223 -4 -287 -45
-150 -128 -259 -262 -344 -164 -104 -372 -108 -574 -10 -264 128 -546 80 -743
-126 -63 -67 -101 -128 -137 -222 l-25 -66 -6 -432 c-3 -237 -7 -433 -10 -435
-3 -3 -54 -33 -115 -68 -60 -35 -168 -97 -240 -138 -284 -164 -305 -175 -356
-180 -68 -6 -129 19 -177 73 -44 50 -62 100 -62 171 0 27 -6 81 -14 119 -61
307 -251 559 -523 694 -150 74 -275 103 -443 103 -259 -1 -490 -94 -677 -275
-155 -150 -253 -337 -289 -556 -18 -110 -18 -168 1 -289 41 -275 193 -519 415
-667 108 -72 140 -120 140 -210 0 -65 -22 -115 -72 -161 -18 -17 -233 -146
-478 -286 -655 -377 -744 -428 -755 -439 -11 -11 12 -58 114 -231 207 -349
495 -712 746 -943 839 -769 1890 -1185 2995 -1185 168 0 457 18 555 34 17 3
66 10 110 16 356 51 760 170 1114 327 443 197 890 497 1224 822 37 36 67 71
67 77 0 18 -261 264 -280 264 -8 0 -45 -27 -80 -61 -298 -278 -625 -504 -984
-679 -592 -287 -1282 -428 -1919 -391 -111 7 -231 16 -267 22 -170 25 -213 32
-325 55 -688 137 -1362 479 -1902 966 -170 154 -343 350 -506 577 -86 121
-117 175 -106 185 4 4 381 222 414 240 11 6 126 72 255 146 200 114 246 145
305 205 138 138 203 332 175 523 -27 191 -119 333 -290 449 -169 114 -257 263
-267 448 -7 118 8 192 58 294 116 236 386 365 639 305 144 -33 279 -127 353
-247 64 -103 86 -169 97 -302 5 -55 13 -116 18 -135 44 -167 156 -308 312
-393 101 -55 173 -70 320 -65 135 5 195 22 289 78 181 111 607 350 622 350 9
0 158 -81 331 -180 329 -190 374 -223 396 -298 33 -110 -8 -192 -142 -282
-252 -170 -416 -485 -416 -800 0 -443 298 -831 730 -951 73 -20 109 -23 245
-24 162 0 190 4 320 47 268 89 505 318 602 582 31 85 63 240 63 308 0 92 62
181 145 208 73 24 132 10 261 -64 66 -38 139 -80 164 -94 25 -14 241 -139 480
-277 532 -308 478 -279 496 -264 8 6 52 78 97 158 370 653 544 1249 577 1974
20 459 -32 928 -151 1362 -38 137 -103 334 -139 420 -5 11 -30 72 -57 135
-298 715 -843 1389 -1489 1843 -399 280 -844 494 -1289 621 -71 21 -92 24
-101 14 -10 -11 -94 -341 -94 -370 0 -4 46 -21 103 -39 493 -150 934 -380
1327 -694 532 -424 949 -981 1197 -1600 145 -362 217 -640 270 -1047 22 -169
25 -695 5 -868 -46 -398 -132 -744 -257 -1035 -7 -16 -25 -59 -40 -95 -46
-109 -105 -221 -120 -227 -13 -4 -176 86 -695 389 -196 114 -265 146 -355 164
-210 41 -419 -28 -571 -188 -109 -116 -151 -219 -173 -430 -13 -116 -39 -190
-98 -280 -72 -109 -175 -186 -308 -229 -97 -32 -242 -32 -335 0 -224 77 -365
247 -401 482 -10 62 -10 94 0 146 32 178 110 297 271 413 211 152 297 318 288
555 -5 133 -35 225 -104 328 -80 116 -90 123 -631 434 -101 57 -185 108 -188
113 -3 5 -6 186 -5 402 l0 393 28 45 c40 65 107 103 180 103 46 0 74 -8 142
-40 246 -117 492 -133 744 -49 309 104 536 344 633 671 25 82 27 104 27 260
-1 155 -3 178 -27 260 -81 271 -265 492 -512 614 -136 67 -238 92 -400 98
-106 4 -148 1 -227 -16 -101 -21 -209 -59 -265 -93 -74 -44 -187 -32 -254 29
-72 66 -69 25 -69 822 0 544 -3 720 -12 729 -14 14 -243 14 -488 1z"/>
</g>
</svg>
